<svg xmlns="http://www.w3.org/2000/svg" width="62.154" height="70.011" viewBox="0 0 62.154 70.011"><defs><style>.a{fill:#2d284d;}</style></defs><g transform="translate(-28.73)"><g transform="translate(28.73 0)"><path class="a" d="M116.79,137.8H83.263a1.03,1.03,0,0,0,0,2.06H116.79a1.03,1.03,0,1,0,0-2.06Z" transform="translate(-74.917 -118.961)"/><path class="a" d="M83.263,87.617h16.763a1.03,1.03,0,1,0,0-2.06H83.263a1.03,1.03,0,0,0,0,2.06Z" transform="translate(-74.917 -73.858)"/><path class="a" d="M116.79,184.1H83.263a1.03,1.03,0,0,0,0,2.06H116.79a1.03,1.03,0,1,0,0-2.06Z" transform="translate(-74.917 -158.923)"/><path class="a" d="M44.713,62.855H33.984a3.2,3.2,0,0,1-3.194-3.194V5.254A3.2,3.2,0,0,1,33.984,2.06H64.895a2.2,2.2,0,0,1,.3.022V8.505a5.26,5.26,0,0,0,5.254,5.254h6.423a2.186,2.186,0,0,1,.022.3V31.593a1.03,1.03,0,0,0,2.06,0V14.055a4.2,4.2,0,0,0-1.239-2.991L67.885,1.239A4.2,4.2,0,0,0,64.895,0H33.984A5.26,5.26,0,0,0,28.73,5.254V59.661a5.26,5.26,0,0,0,5.254,5.254h10.73a1.03,1.03,0,1,0,0-2.06ZM75.433,11.7H70.444A3.2,3.2,0,0,1,67.25,8.505V3.516Z" transform="translate(-28.73 0)"/><path class="a" d="M141.125,268.74l-8.726-14.73a2.257,2.257,0,0,0-3.095-.792l-2.123,1.258a4.032,4.032,0,0,0-1.778,4.7,3.158,3.158,0,0,1-2.221-.024c-1.676-.527-2.95-1.588-5.054-1.056-3.573.91-3.464.864-3.788.975-2.092-1.191-3.35-1.546-5.571-.686l-1.98.765a3.167,3.167,0,0,1-2.773-.232l-.54-.318a4.024,4.024,0,0,0-1.92-4.125h0l-2.122-1.257a2.261,2.261,0,0,0-3.094.792l-8.727,14.73a2.258,2.258,0,0,0,.792,3.094l2.122,1.257a4,4,0,0,0,2.045.561,4.054,4.054,0,0,0,2.2-.65l.442.261-.934,1.3a3.45,3.45,0,0,0,3.341,5.423,3.448,3.448,0,0,0,3.938,2.828,3.451,3.451,0,0,0,4.764,2.59,3.45,3.45,0,0,0,5.867.97l2.482,1.47a3.458,3.458,0,0,0,5.192-2.56l.006,0a3.454,3.454,0,0,0,5.2-2.717,3.454,3.454,0,0,0,4.279-2.987,3.455,3.455,0,0,0,3.9-5.44l1.368-.8a4.018,4.018,0,0,0,3.585-.257l2.122-1.258A2.257,2.257,0,0,0,141.125,268.74Zm-49.549,2.58-2.122-1.258a.2.2,0,0,1-.07-.272l8.727-14.73a.2.2,0,0,1,.273-.07l2.122,1.257a1.966,1.966,0,0,1,.69,2.694L94.271,270.63a1.969,1.969,0,0,1-2.694.69Zm4.7,6.392a1.393,1.393,0,0,1-.319-1.945l1.373-1.912a1.394,1.394,0,0,1,2.264,1.625l-1.373,1.912A1.4,1.4,0,0,1,96.273,277.712Zm3.937,2.827a1.4,1.4,0,0,1-.319-1.945l1.373-1.912h0l1.515-2.11a1.384,1.384,0,0,1,.906-.562,1.406,1.406,0,0,1,.229-.019,1.394,1.394,0,0,1,1.129,2.206l-2.888,4.023A1.393,1.393,0,0,1,100.21,280.538Zm3.937,2.827a1.4,1.4,0,0,1-.32-1.944h0l2.888-4.022a1.393,1.393,0,1,1,2.264,1.625L107.7,280.81h0l-1.6,2.235A1.4,1.4,0,0,1,104.147,283.365Zm4.582,1.929a1.4,1.4,0,0,1-.32-1.944l.961-1.339a1.394,1.394,0,1,1,2.264,1.625l-.96,1.337A1.4,1.4,0,0,1,108.729,285.294Zm23.084-8.211a1.4,1.4,0,0,1-1.91.489l-9.116-5.4a1.03,1.03,0,1,0-1.05,1.772l6.892,4.083h0a1.394,1.394,0,0,1-1.421,2.4l-6.9-4.085a1.03,1.03,0,1,0-1.05,1.772l5.078,3.009h0a1.394,1.394,0,0,1-1.422,2.4l-2.725-1.614h0l-1.989-1.178a1.03,1.03,0,1,0-1.05,1.772l1.989,1.179h0a1.394,1.394,0,1,1-1.421,2.4L113.4,284.7a3.451,3.451,0,0,0-2.319-5.28,3.45,3.45,0,0,0-3.768-4.62,3.453,3.453,0,0,0-5.858-1.846,3.45,3.45,0,0,0-4.8-1.232l-.472-.279,6.477-10.934.308.182a5.215,5.215,0,0,0,4.564.379l1.98-.765a3.039,3.039,0,0,1,2.878.062,4.61,4.61,0,0,0-1.168,3.071v4.566a2.2,2.2,0,0,0,2.2,2.2h0a4.561,4.561,0,0,0,4.312-3.083l13.59,8.048a1.394,1.394,0,0,1,.489,1.909Zm7.47-7.02-2.123,1.258a1.969,1.969,0,0,1-2.694-.69l-3.246-5.478a1.03,1.03,0,1,0-1.772,1.05l3.246,5.479c.061.1.127.2.2.3l-.9.527a5.227,5.227,0,0,0-.526.356l-13.992-8.286a1.03,1.03,0,0,0-1.555.886,2.63,2.63,0,0,1-.731,1.957,2.478,2.478,0,0,1-1.763.73h0a.141.141,0,0,1-.14-.141V263.44a2.562,2.562,0,0,1,1.931-2.48l3.421-.866c1.241-.314,1.943.349,3.8.978a5.207,5.207,0,0,0,3.938-.063l.622,1.049a1.03,1.03,0,0,0,1.772-1.05l-1.224-2.067a1.966,1.966,0,0,1,.69-2.694l2.122-1.257a.2.2,0,0,1,.273.07l8.726,14.73A.2.2,0,0,1,139.283,270.063Z" transform="translate(-79.287 -218.32)"/></g></g></svg>