<svg xmlns="http://www.w3.org/2000/svg" width="112.242" height="39.114" viewBox="0 0 112.242 39.114"><defs><style>.a{fill:#13110c;stroke:#13110c;stroke-width:0.094px;opacity:0.5;}</style></defs><g transform="translate(0.064 0.046)"><path class="a" d="M98.5,39.022c1.791-5.576,3.6-11.137,5.372-16.713-1.3-.006-2.611,0-3.918,0-1.743,0-3.486,0-5.225-.012C97.089,14.87,99.506,7.459,101.85.02,103.491-.006,105.127,0,106.764,0c1.093,0,2.187.007,3.282,0l-6.289,19.348c.859.9,1.645,1.907,2.562,2.722,1.106.033,2.213.028,3.316.024.828,0,1.654-.007,2.478.005q-2.751,8.451-5.532,16.917Zm-21.168,0Q83.6,19.521,89.868.005H98.05c-3.276,10.977-6.58,21.925-9.841,32.9a7.165,7.165,0,0,0,.854,0,4.61,4.61,0,0,1,1.3.072c1.878,1.98,3.712,4.033,5.576,6.042Zm-11.967,0c.772-2.489,1.616-4.964,2.373-7.468,2.955-.044,5.911.015,8.866.015-.728,2.489-1.47,4.964-2.213,7.454Zm-12,0a9.192,9.192,0,0,0,.6-2.271Q48.093,18.385,42.175.005H56.821c-1.383,1.616-2.766,3.217-4.164,4.833,3.407,11.4,6.871,22.784,10.278,34.183Zm-16.815,0Q30.267,19.521,24.021.005H39.337q-2.315,2.511-4.615,5.023c-.189.16-.044.408,0,.6,1.077,3.552,2.125,7.119,3.2,10.671,1.256.017,2.517.014,3.78.012.947,0,1.9,0,2.844,0-1.66,1.82-3.319,3.61-4.979,5.416,1.063,3.727,2.227,7.439,3.3,11.166.224.017.452.012.682.007a4.536,4.536,0,0,1,1.094.066c1.893,1.994,3.727,4.033,5.59,6.056Zm-24.007,0Q6.26,19.521,0,.005H8.6c.248,0,.524-.029.684.189,1.82,1.994,3.654,3.96,5.459,5.954-1.281.015-2.562,0-3.858.015q4.018,13.387,8.036,26.787H23.1c-2.679-8.357-5.4-16.7-8.094-25.055,1.092,0,2.184,0,3.276-.015C17.019,6.338,15.679,4.853,14.4,3.31c2.853,1.368,5.678,2.81,8.531,4.222.349.116.379.524.5.815,2.635,8.269,5.3,16.538,7.934,24.807-1.7.015-3.421,0-5.124.015-1.805,1.951-3.581,3.916-5.4,5.852ZM59.471,21.494a2.067,2.067,0,0,1-.16-.932c1.747-5.547,3.581-11.064,5.3-16.626C63.649,2.568,62.4,1.33,61.32.005H74.073Q68.832,17.519,63.591,35.018C62.106,30.549,60.883,25.992,59.471,21.494Zm8.866,8.3Q73.1,14.9,77.9.005h8.167Q81.614,14.92,77.145,29.821,72.733,29.821,68.337,29.792Z" transform="translate(0 0)"/></g></svg>