<svg xmlns="http://www.w3.org/2000/svg" width="18.927" height="20.647" viewBox="0 0 18.927 20.647"><defs><style>.a{fill:#2d284d;}</style></defs><g transform="translate(-1)"><path class="a" d="M3.22,18.235H15.487l-.586-1.9c.087.076,5.026,4.309,5.026,4.309V2.129A2.284,2.284,0,0,0,17.649,0L3.224,0A2.2,2.2,0,0,0,1,2.134V16.1a2.153,2.153,0,0,0,2.22,2.13ZM12.294,4.889l-.028.01.01-.01ZM5.729,5.981A5.307,5.307,0,0,1,8.768,4.888L8.886,5a6.262,6.262,0,0,0-2.8,1.322,9.769,9.769,0,0,1,8.707.057A7.076,7.076,0,0,0,12.1,5.061l.16-.157a5.312,5.312,0,0,1,2.993,1.084,13.28,13.28,0,0,1,1.586,6.039,4.585,4.585,0,0,1-3.382,1.485s-.406-.459-.7-.86a3.475,3.475,0,0,0,1.927-1.208c-2.73,1.719-5.122,1.45-7.985.289a.066.066,0,0,1-.052-.026V11.7a.069.069,0,0,0-.052-.026H6.549a2.907,2.907,0,0,0-.293-.172,3.453,3.453,0,0,0,1.87,1.208c-.354.4-.7.862-.7.862A3.826,3.826,0,0,1,4.152,12.02,13.312,13.312,0,0,1,5.729,5.981Z" transform="translate(0 0)"/><path class="a" d="M14.128,12.4a1.151,1.151,0,0,0,0-2.3v0a1.15,1.15,0,0,0,0,2.3Z" transform="translate(-1.679 -1.41)"/><path class="a" d="M9.51,12.4a1.151,1.151,0,0,0,0-2.3l0,0a1.15,1.15,0,0,0,0,2.3Z" transform="translate(-1.034 -1.41)"/></g></svg>