<svg xmlns="http://www.w3.org/2000/svg" width="18.981" height="15.422" viewBox="0 0 18.981 15.422"><defs><style>.a{fill:#2d284d;}</style></defs><g transform="translate(0 -48)"><g transform="translate(0 48)"><path class="a" d="M18.981,49.826a8.113,8.113,0,0,1-2.242.615,3.87,3.87,0,0,0,1.712-2.151,7.777,7.777,0,0,1-2.468.942,3.891,3.891,0,0,0-6.731,2.661,4.007,4.007,0,0,0,.09.887,11.015,11.015,0,0,1-8.021-4.07,3.892,3.892,0,0,0,1.2,5.2,3.843,3.843,0,0,1-1.758-.479v.043A3.909,3.909,0,0,0,3.877,57.3a3.884,3.884,0,0,1-1.02.128,3.441,3.441,0,0,1-.737-.066A3.928,3.928,0,0,0,5.756,60.07,7.819,7.819,0,0,1,.931,61.73,7.288,7.288,0,0,1,0,61.676a10.955,10.955,0,0,0,5.97,1.746A11,11,0,0,0,17.045,52.349c0-.172-.006-.338-.014-.5A7.763,7.763,0,0,0,18.981,49.826Z" transform="translate(0 -48)"/></g></g></svg>