<svg xmlns="http://www.w3.org/2000/svg" width="15.422" height="15.422" viewBox="0 0 15.422 15.422"><defs><style>.a{fill:#2d284d;}</style></defs><path class="a" d="M18.452,18.129h0V12.473c0-2.767-.6-4.9-3.831-4.9A3.358,3.358,0,0,0,11.6,9.236h-.045v-1.4H8.489v10.3h3.194v-5.1c0-1.342.254-2.64,1.917-2.64,1.638,0,1.662,1.532,1.662,2.727v5.013Z" transform="translate(-3.034 -2.707)"/><path class="a" d="M.4,7.977h3.2v10.3H.4Z" transform="translate(-0.142 -2.851)"/><path class="a" d="M1.852,0A1.861,1.861,0,1,0,3.7,1.852,1.853,1.853,0,0,0,1.852,0Z"/></svg>