<svg xmlns="http://www.w3.org/2000/svg" width="70" height="70" viewBox="0 0 70 70"><defs><style>.a{fill:#2d284d;}</style></defs><g transform="translate(-1235 -2162)"><g transform="translate(1235 2162)"><path class="a" d="M247.617,212a1.368,1.368,0,1,0,.967.4A1.377,1.377,0,0,0,247.617,212Z" transform="translate(-212.583 -183.016)"/><path class="a" d="M170.566,61.557a1.366,1.366,0,0,0,1.741-.841,15.586,15.586,0,1,0-29.473-.093,1.367,1.367,0,1,0,2.588-.883,12.852,12.852,0,1,1,24.3.076A1.367,1.367,0,0,0,170.566,61.557Z" transform="translate(-122.586 -34.531)"/><path class="a" d="M103.884,28.769a1.367,1.367,0,0,0,.847-1.738,18.32,18.32,0,1,1,34.648,0,1.367,1.367,0,1,0,2.585.891,21.055,21.055,0,1,0-39.818,0,1.367,1.367,0,0,0,1.738.847Z" transform="translate(-87.191)"/><path class="a" d="M63.164,104.883H41.907a10.089,10.089,0,0,0,3.21-7.383V90.117a10.117,10.117,0,1,0-20.234,0V97.5a10.089,10.089,0,0,0,3.21,7.383H21.055a1.367,1.367,0,1,0,0,2.734H33.633v3.828H29.78a1.367,1.367,0,0,0,0,2.734H40.22a1.367,1.367,0,0,0,0-2.734H36.367v-3.828h26.8a4.106,4.106,0,0,1,4.1,4.1v20.508a4.106,4.106,0,0,1-4.1,4.1H6.836a4.106,4.106,0,0,1-4.1-4.1V111.719a4.106,4.106,0,0,1,4.1-4.1H8.75a1.367,1.367,0,0,0,0-2.734H6.836A6.844,6.844,0,0,0,0,111.719v20.508a6.844,6.844,0,0,0,6.836,6.836H63.164A6.844,6.844,0,0,0,70,132.227V111.719A6.844,6.844,0,0,0,63.164,104.883ZM35,82.734a7.391,7.391,0,0,1,7.383,7.383V92.73H27.617V90.117A7.391,7.391,0,0,1,35,82.734ZM27.617,97.5V95.464H42.383V97.5a7.383,7.383,0,0,1-14.766,0Z" transform="translate(0 -69.063)"/><path class="a" d="M110.218,358.365a1.367,1.367,0,0,0-1.367,1.367v10.928a1.367,1.367,0,0,0,1.136,1.348,10.132,10.132,0,0,0,1.39.03c.585,0,1.435,0,2.678-.01a1.367,1.367,0,0,0-.008-2.734h-.008c-.843,0-1.746.008-2.455.009v-9.57A1.367,1.367,0,0,0,110.218,358.365Z" transform="translate(-93.969 -309.37)"/><path class="a" d="M191.6,370.67V359.732a1.367,1.367,0,0,0-2.734,0V370.67a1.367,1.367,0,0,0,2.734,0Z" transform="translate(-163.043 -309.37)"/><path class="a" d="M355.682,361.464a1.367,1.367,0,0,0,0-2.734h-4.567a1.367,1.367,0,0,0-1.367,1.367v10.838a1.367,1.367,0,0,0,1.367,1.367h4.567a1.367,1.367,0,0,0,0-2.734h-3.2v-2.684h2.863a1.367,1.367,0,0,0,0-2.734h-2.863v-2.684Z" transform="translate(-301.931 -309.685)"/><path class="a" d="M246.2,372.035h.011a1.619,1.619,0,0,0,1.52-1.1l3.571-10.75a1.367,1.367,0,0,0-2.595-.862l-2.531,7.618-2.657-7.655a1.367,1.367,0,0,0-2.583.9l3.743,10.783A1.615,1.615,0,0,0,246.2,372.035Z" transform="translate(-207.932 -309.368)"/><path class="a" d="M100.367,264.734a1.368,1.368,0,1,0-.967-.4A1.378,1.378,0,0,0,100.367,264.734Z" transform="translate(-85.465 -226.18)"/></g></g></svg>