<svg xmlns="http://www.w3.org/2000/svg" width="206.962" height="29.389" viewBox="0 0 206.962 29.389"><defs><style>.a{fill:#2d284d;}.a,.b{stroke:rgba(0,0,0,0);stroke-miterlimit:10;}.b{fill:#e93f77;}</style></defs><g transform="translate(-374.5 -25.5)"><g transform="translate(214 -135)"><path class="a" d="M61.247,18.5l4.1,0v.276a2.552,2.552,0,0,0,2.8,2.4,2.445,2.445,0,0,0,2.709-2.184,2.049,2.049,0,0,0-.831-1.633,8.393,8.393,0,0,0-2.493-1.138c-4.5-1.6-6.1-3.295-6.1-6.436,0-3.724,2.741-6.218,6.773-6.218,4,0,6.589,2.339,6.927,6.28H70.883A2.424,2.424,0,0,0,68.2,7.292,2.233,2.233,0,0,0,65.68,9.446a2.15,2.15,0,0,0,1.262,1.938,14.435,14.435,0,0,0,2.4,1.016,11.465,11.465,0,0,1,4.279,2.278,5.319,5.319,0,0,1,1.632,3.971c0,3.757-2.833,6.25-7.08,6.25C63.864,24.9,61.216,22.433,61.247,18.5ZM53.479,24.51V15.666A2.987,2.987,0,0,0,53.139,14a2.238,2.238,0,0,0-1.874-.953,2.538,2.538,0,0,0-2.524,2.8V24.5H44.827V10.247h3.91V12.01a4.087,4.087,0,0,1,3.875-2.248,5.115,5.115,0,0,1,3.511,1.323c.923.925,1.262,2.063,1.262,4.4V24.51ZM142.72,24.5l-1.17-3.541h-7.882L132.435,24.5h-4.462l7.08-20.535h5.266L147.337,24.5Zm-7.976-6.989h5.7l-2.833-8.5ZM196.5,24.5h-1.87V15.451L187.755,3.967h5.018l3.971,7.112,3.911-7.112h4.933l-6.743,11.484v6.7a2.348,2.348,0,0,1-2.339,2.357Zm-18.743,0V3.967h4.217V21.024h6.858V24.5Zm-9.562,0V11.7l-5.1,9.268h-3.209L154.8,11.7V24.5h-4.217V3.967h4.772l6.127,11.94,6.157-11.94h4.773V24.5Zm-54.544,0V3.967h11.421v3.45h-7.2v5.049h7.2v3.447h-7.2v5.143h7.2V24.5Zm-8.822,0-5.638-8.159L99.2,24.5H94.97V3.967h6.342c5.08,0,7.821,2.248,7.821,6.466a5.918,5.918,0,0,1-4.865,6.188l5.666,7.882ZM99.2,13.882h1.908c2.4,0,3.756-1.171,3.756-3.233a3.059,3.059,0,0,0-3.386-3.2H99.2ZM82.562,24.5V7.415h-4.9V3.967H91.643v3.45H86.78V24.5Zm-44.257,0a2.319,2.319,0,0,1-2.318-2.317V10.247H39.9L39.892,24.5ZM37.921,8.371a2.172,2.172,0,0,1-2.155-2.186A2.115,2.115,0,0,1,37.8,4c.049,0,.1,0,.148,0a2.1,2.1,0,0,1,2.154,2.217,2.17,2.17,0,0,1-2.17,2.156Z" transform="translate(161 161)"/></g><path class="b" d="M186.963,161H163.426A2.424,2.424,0,0,0,161,163.422v23.541a2.426,2.426,0,0,0,2.426,2.426h23.538a2.428,2.428,0,0,0,2.426-2.426V163.426A2.426,2.426,0,0,0,186.963,161Zm-2.244,24.441H165.668a.722.722,0,0,1-.721-.722V165.668a.72.72,0,0,1,.721-.721h9.73v10.042H185.44v9.728A.724.724,0,0,1,184.719,185.441Z" transform="translate(214 -135)"/></g></svg>