<svg xmlns="http://www.w3.org/2000/svg" width="75.959" height="70.011" viewBox="0 0 75.959 70.011"><defs><style>.a,.b,.c{fill:#2d284d;}.b{stroke:rgba(0,0,0,0);stroke-miterlimit:10;}.c{stroke:#2d284d;stroke-width:0.094px;}</style></defs><g transform="translate(0 -20.047)"><path class="a" d="M63.237,49.57a1.521,1.521,0,0,0,2.148,0l10.13-10.13a1.519,1.519,0,0,0,0-2.148L63.3,25.076a17.057,17.057,0,0,0-12.14-5.029H24.8a17.057,17.057,0,0,0-12.14,5.029L.445,37.292a1.519,1.519,0,0,0,0,2.148l10.13,10.13a1.521,1.521,0,0,0,2.148,0l4.315-4.315V60.686h-.95A11,11,0,0,0,5.1,71.669v6.492L1.282,81.537a3.788,3.788,0,0,0,1.695,6.539,86.327,86.327,0,0,0,36.789,0A3.773,3.773,0,0,0,42.672,85.1H46.88l-.231,2.644a1.711,1.711,0,0,0,1.7,1.86h24.6a1.711,1.711,0,0,0,1.7-1.86L72.43,62.248a1.7,1.7,0,0,0-1.7-1.562H68.319a7.672,7.672,0,0,0-9.4-7.228v-8.2ZM28.112,23.93a1.113,1.113,0,0,0,2.143-.6,7.992,7.992,0,0,1-.22-1.057H45.923A8.021,8.021,0,0,1,32.59,27.1a1.113,1.113,0,1,0-1.5,1.648,10.247,10.247,0,0,0,17.072-6.475h1.491a11.73,11.73,0,0,1-23.355,0h1.491a10.208,10.208,0,0,0,.319,1.657Zm2.8,40.085a8.765,8.765,0,0,1,4.506,7.655V77.71l-1.772.276V72.529a13.867,13.867,0,0,0-2.733-8.514ZM23.48,60.686H19.263v-.648A.84.84,0,0,1,20.1,59.2h2.538a.84.84,0,0,1,.84.839v.648ZM7.33,71.669a8.765,8.765,0,0,1,4.506-7.655A13.868,13.868,0,0,0,9.1,72.529v5.458L7.33,77.71Zm33.137,13.1A1.536,1.536,0,0,1,39.289,85.9a84.086,84.086,0,0,1-35.834,0,1.563,1.563,0,0,1-.7-2.7l3.806-3.362,2.62.408c1.534.239,3.095.436,4.64.584a1.113,1.113,0,1,0,.212-2.215c-.9-.086-1.805-.189-2.707-.308V72.529c0-5.3,3.045-9.618,6.787-9.618h6.515c3.742,0,6.787,4.314,6.787,9.618v5.783a77.133,77.133,0,0,1-12.206.629,1.113,1.113,0,1,0-.063,2.224,79.33,79.33,0,0,0,14.414-.913l2.62-.408L39.988,83.2a1.543,1.543,0,0,1,.512.92c0,.012,0,.025.005.037A1.587,1.587,0,0,1,40.466,84.768ZM60.654,55.486a5.45,5.45,0,0,1,5.438,5.2H58.921V55.769A5.417,5.417,0,0,1,60.654,55.486Zm-5.438,5.2A5.424,5.424,0,0,1,56.7,57.2v3.49Zm-2.227,0H50.583a1.7,1.7,0,0,0-1.7,1.562l-.543,6.2a1.113,1.113,0,1,0,2.217.194l.5-5.732h19.2l2.14,24.465H48.914L49.2,84.1c0-.009,0-.019,0-.029l.875-10a1.113,1.113,0,0,0-2.217-.194l-.787,9H42.433a3.793,3.793,0,0,0-.972-1.336l-3.822-3.375V71.669A11,11,0,0,0,26.656,60.686h-.95v-.648a3.068,3.068,0,0,0-3.065-3.065H20.1a3.057,3.057,0,0,0-.839.117V31.3a1.113,1.113,0,0,0-2.225,0V42.2a1.528,1.528,0,0,0-.368.271L11.649,47.5,2.518,38.366,14.235,26.649A14.836,14.836,0,0,1,24.07,22.29a13.956,13.956,0,0,0,27.82,0,14.834,14.834,0,0,1,9.835,4.359L73.441,38.366,64.31,47.5l-5.022-5.022a1.524,1.524,0,0,0-.367-.271V31.3a1.113,1.113,0,0,0-2.225,0v23.06a7.674,7.674,0,0,0-3.706,6.323Z" transform="translate(0)"/><path class="b" d="M175.833,161H162.386A1.385,1.385,0,0,0,161,162.384v13.449a1.386,1.386,0,0,0,1.386,1.386h13.447a1.387,1.387,0,0,0,1.386-1.386V162.386A1.386,1.386,0,0,0,175.833,161Zm-1.282,13.964H163.667a.413.413,0,0,1-.412-.413V163.667a.412.412,0,0,1,.412-.412h5.559v5.737h5.737v5.558A.414.414,0,0,1,174.551,174.964Z" transform="translate(-131.13 -118.917)"/><path class="b" d="M169.176,161h-7.412a.763.763,0,0,0-.764.763h0v7.412a.764.764,0,0,0,.764.764h7.412a.764.764,0,0,0,.764-.764v-7.412A.764.764,0,0,0,169.176,161Zm-.707,7.7h-6a.227.227,0,0,1-.227-.227v-6a.227.227,0,0,1,.227-.227h3.064v3.162H168.7v3.063A.228.228,0,0,1,168.469,168.7Z" transform="translate(-144.098 -94.601)"/><g transform="translate(52.078 72.354)"><path class="c" d="M95.9,32.991h1.316c.038,0,.08,0,.1.029.278.305.559.606.835.911-.2,0-.392,0-.59,0q.615,2.048,1.23,4.1h.639c-.41-1.279-.826-2.555-1.238-3.833.167,0,.334,0,.5,0-.194-.236-.4-.463-.595-.7.437.209.869.43,1.305.646.053.018.058.08.076.125.4,1.265.811,2.53,1.214,3.8-.261,0-.523,0-.784,0-.276.3-.548.6-.826.9H97.82Q96.858,35.977,95.9,32.991Z" transform="translate(-95.9 -32.99)"/><path class="c" d="M260.9,33h2.343q-.354.384-.706.768c-.029.025-.007.062,0,.091.165.543.325,1.089.49,1.633.336,0,.675,0,1.013,0-.254.278-.508.552-.762.829.163.57.341,1.138.506,1.708a1.85,1.85,0,0,1,.272.011c.29.305.57.617.855.927h-2.094Q261.856,35.986,260.9,33Z" transform="translate(-257.225 -32.999)"/><path class="c" d="M385.6,33h2.241c-.212.247-.423.492-.637.739.521,1.744,1.051,3.486,1.573,5.23h-1.463a1.406,1.406,0,0,0,.091-.347Q386.505,35.812,385.6,33Z" transform="translate(-379.147 -32.999)"/><path class="c" d="M503.483,33h1.951q-.8,2.68-1.6,5.357c-.227-.684-.414-1.381-.63-2.069a.316.316,0,0,1-.024-.143c.267-.849.548-1.693.811-2.544C503.839,33.392,503.648,33.2,503.483,33Z" transform="translate(-494.101 -32.999)"/><path class="c" d="M566.763,33h1.25q-.682,2.282-1.365,4.562c-.45,0-.9,0-1.348,0Q566.028,35.279,566.763,33Z" transform="translate(-554.845 -32.999)"/><path class="c" d="M629.018,33h1.252c-.5,1.679-1.007,3.354-1.506,5.034a2.031,2.031,0,0,1,.33.011c.287.3.568.617.853.924H627.1Q628.059,35.986,629.018,33Z" transform="translate(-615.268 -32.999)"/><path class="c" d="M747.689,32.966c.419-.007.835,0,1.254,0l-.962,2.96c.131.138.252.292.392.417.3.009.592,0,.887,0q-.421,1.293-.846,2.588h-1.236c.274-.853.55-1.7.822-2.557-.466,0-.933,0-1.4,0C746.961,35.238,747.331,34.1,747.689,32.966Z" transform="translate(-732.106 -32.963)"/><path class="c" d="M545.263,249.591c.452-.007.9,0,1.356,0-.111.381-.225.76-.339,1.14H544.9C545.018,250.353,545.147,249.974,545.263,249.591Z" transform="translate(-534.899 -244.763)"/></g></g></svg>