<svg xmlns="http://www.w3.org/2000/svg" width="223.278" height="38.645" viewBox="0 0 223.278 38.645"><defs><style>.a{fill:#888784;}</style></defs><path class="a" d="M31.782,6.62h-.121c-6.287,0-9.65,4.03-11.68,13.967-1.894,9.407-4.439,11.725-8.832,11.725h-.136c-4.726,0-8.226-4.257-8.226-10.468A18.969,18.969,0,0,1,6.544,9.877a6.97,6.97,0,0,0,1,.106A4.992,4.992,0,1,0,2.545,5,4.907,4.907,0,0,0,3.939,8.438,22.755,22.755,0,0,0,0,21.693c0,8,4.62,13.725,11.3,13.725h.106c6.044,0,9.468-4.03,11.437-13.619,2.03-9.832,4.681-12.074,9.074-12.074h.136c4.317,0,7.8,4.03,7.8,10.119A17.708,17.708,0,0,1,37.6,28.783a5.1,5.1,0,0,0-1.076-.136,5.026,5.026,0,1,0,3.711,1.666,20.524,20.524,0,0,0,2.439-10.392C42.674,12.225,37.933,6.62,31.782,6.62Z"/><path class="a" d="M349.6,90.544a5.7,5.7,0,0,0-1.363-.667c-.515-.167-1.015-.318-1.53-.47-.242-.061-.485-.121-.727-.2s-.5-.167-.788-.288a2.25,2.25,0,0,1-.576-.364,1.082,1.082,0,0,1-.3-.863,1.278,1.278,0,0,1,.167-.667,1.181,1.181,0,0,1,.439-.424,1.976,1.976,0,0,1,.636-.227,3.982,3.982,0,0,1,.742-.061,4.053,4.053,0,0,1,.924.091c.258.061.47.121.667.182q.273.068.5.136a1.891,1.891,0,0,0,.53.061A1.582,1.582,0,0,0,350,86.439a1.056,1.056,0,0,0,.394-.8.965.965,0,0,0-.485-.833,3.926,3.926,0,0,0-1.167-.5,8.652,8.652,0,0,0-1.394-.242c-.47-.045-.863-.061-1.166-.061a7.358,7.358,0,0,0-2,.258,4.261,4.261,0,0,0-1.53.757,3.354,3.354,0,0,0-.97,1.2,3.608,3.608,0,0,0-.348,1.591,3.115,3.115,0,0,0,.379,1.636,3.151,3.151,0,0,0,.985,1.06,5.7,5.7,0,0,0,1.363.667c.515.167,1.015.318,1.53.454.273.091.545.167.8.242s.5.167.727.242a1.832,1.832,0,0,1,.576.364,1.173,1.173,0,0,1,.288.879,1.34,1.34,0,0,1-.545,1.166,2.712,2.712,0,0,1-1.636.409,5.559,5.559,0,0,1-1.182-.121c-.348-.091-.636-.167-.894-.242-.2-.061-.379-.106-.561-.151a1.926,1.926,0,0,0-.485-.061,1.413,1.413,0,0,0-.985.364,1.08,1.08,0,0,0-.394.8,1,1,0,0,0,.485.818,3.962,3.962,0,0,0,1.166.545,8.7,8.7,0,0,0,1.469.3,11.831,11.831,0,0,0,1.363.091A7.479,7.479,0,0,0,347.859,97a5.116,5.116,0,0,0,1.636-.773,3.948,3.948,0,0,0,1.091-1.257,3.639,3.639,0,0,0,.394-1.7,3.037,3.037,0,0,0-.394-1.606A2.983,2.983,0,0,0,349.6,90.544Z" transform="translate(-289.597 -71.275)"/><path class="a" d="M435.362,85.333a1.676,1.676,0,0,0-1.03-.333H426.97a1.443,1.443,0,0,0-.576.106,1.373,1.373,0,0,0-.454.288,1.459,1.459,0,0,0-.318.379.842.842,0,0,0-.121.394,1.006,1.006,0,0,0,.424.818,1.574,1.574,0,0,0,1.045.333h2.212v9.574a1.006,1.006,0,0,0,.424.818,1.628,1.628,0,0,0,1.03.348,1.6,1.6,0,0,0,1.03-.348,1.006,1.006,0,0,0,.424-.818V87.318H434.3a1.63,1.63,0,0,0,1.045-.333,1.023,1.023,0,0,0,.439-.818A.907.907,0,0,0,435.362,85.333Z" transform="translate(-361.042 -72.124)"/><path class="a" d="M525.514,92.393a4.4,4.4,0,0,0,2.136-1.257,3.292,3.292,0,0,0,.773-2.257,4.2,4.2,0,0,0-.258-1.409,3.13,3.13,0,0,0-.864-1.242,4.368,4.368,0,0,0-1.606-.894A7.724,7.724,0,0,0,523.226,85h-3.636a1.648,1.648,0,0,0-.606.106,1.886,1.886,0,0,0-.515.288,1.474,1.474,0,0,0-.348.409,1,1,0,0,0-.121.515V96.862a1.061,1.061,0,0,0,.424.848,1.517,1.517,0,0,0,1.015.364,1.419,1.419,0,0,0,.56-.106,1.32,1.32,0,0,0,.47-.273,1.248,1.248,0,0,0,.318-.379.855.855,0,0,0,.121-.454v-4.2h1.424l3.515,4.817a1.426,1.426,0,0,0,1.227.561,1.624,1.624,0,0,0,.7-.167,1.767,1.767,0,0,0,.56-.424,1.142,1.142,0,0,0,.258-.606,1.009,1.009,0,0,0-.212-.682Zm-.591-2.424a2.927,2.927,0,0,1-1.651.379h-2.348V87.3h2.227a4.173,4.173,0,0,1,1.166.136,2.04,2.04,0,0,1,.727.364,1.2,1.2,0,0,1,.348.5,1.809,1.809,0,0,1,.091.561A1.213,1.213,0,0,1,524.923,89.969Z" transform="translate(-439.529 -72.124)"/><path class="a" d="M623.014,95.822a1.616,1.616,0,0,0-1.03-.333h-4.56V92.5h3.954a1.588,1.588,0,0,0,1.03-.333,1.055,1.055,0,0,0,.424-.833.962.962,0,0,0-.454-.818,1.621,1.621,0,0,0-1-.333h-3.954V87.233h4.348a1.668,1.668,0,0,0,1.03-.318.967.967,0,0,0,.424-.818,1.054,1.054,0,0,0-.424-.833,1.557,1.557,0,0,0-1.03-.364h-5.666a1.782,1.782,0,0,0-.651.106,1.6,1.6,0,0,0-.5.288,1.3,1.3,0,0,0-.333.424.907.907,0,0,0-.121.47v10.3a1.146,1.146,0,0,0,.151.621,1.221,1.221,0,0,0,.424.409,2.5,2.5,0,0,0,.621.212,3.926,3.926,0,0,0,.727.061h5.544a1.6,1.6,0,0,0,1.03-.348,1.04,1.04,0,0,0,.424-.848A.86.86,0,0,0,623.014,95.822Z" transform="translate(-521.411 -72.039)"/><path class="a" d="M707.119,95.565l-4.075-10.422a2.56,2.56,0,0,0-.591-.894,1.6,1.6,0,0,0-1.121-.348,1.535,1.535,0,0,0-1.121.364,2.46,2.46,0,0,0-.576.894L695.561,95.58a.38.38,0,0,0-.045.2c0,.091-.015.151-.015.2a.993.993,0,0,0,.454.848,1.791,1.791,0,0,0,1.06.318,1.608,1.608,0,0,0,.788-.227,1.335,1.335,0,0,0,.591-.636l.7-1.848h4.454l.727,1.848a1.233,1.233,0,0,0,.591.621,1.768,1.768,0,0,0,1.909-.076,1.09,1.09,0,0,0,.409-1.045A.507.507,0,0,0,707.119,95.565Zm-7.271-3.227,1.106-3.136a6.41,6.41,0,0,0,.227-.894c.061-.318.106-.621.151-.909.045.288.091.576.152.909a6.975,6.975,0,0,0,.227.894l1.06,3.136Z" transform="translate(-590.14 -71.19)"/><path class="a" d="M808.737,84.164a1.622,1.622,0,0,0-1.076-.364,2.2,2.2,0,0,0-.833.151,1.2,1.2,0,0,0-.621.545L802.5,90.981l-3.727-6.469A1.568,1.568,0,0,0,797.3,83.8a1.659,1.659,0,0,0-1.076.333A1.048,1.048,0,0,0,795.8,85V95.874a1.032,1.032,0,0,0,.409.818,1.518,1.518,0,0,0,1.015.333,1.7,1.7,0,0,0,1.06-.333,1,1,0,0,0,.455-.818v-6.3l2.378,4.105a1.218,1.218,0,0,0,.576.53,1.93,1.93,0,0,0,.788.167,2,2,0,0,0,.8-.167,1.218,1.218,0,0,0,.576-.53l2.378-4.105v6.3a1.023,1.023,0,0,0,.439.818,1.63,1.63,0,0,0,1.045.333,1.574,1.574,0,0,0,1.015-.333,1.006,1.006,0,0,0,.424-.818V85.027A1.089,1.089,0,0,0,808.737,84.164Z" transform="translate(-675.246 -71.105)"/><path class="a" d="M922.614,95.822a1.616,1.616,0,0,0-1.03-.333h-4.56V92.5h3.954a1.587,1.587,0,0,0,1.03-.333,1.055,1.055,0,0,0,.424-.833.962.962,0,0,0-.455-.818,1.621,1.621,0,0,0-1-.333h-3.954V87.233h4.348a1.668,1.668,0,0,0,1.03-.318.967.967,0,0,0,.424-.818,1.054,1.054,0,0,0-.424-.833,1.557,1.557,0,0,0-1.03-.364h-5.666a1.781,1.781,0,0,0-.651.106,1.6,1.6,0,0,0-.5.288,1.3,1.3,0,0,0-.333.424.907.907,0,0,0-.121.47v10.3a1.145,1.145,0,0,0,.151.621,1.22,1.22,0,0,0,.424.409,2.5,2.5,0,0,0,.621.212,3.926,3.926,0,0,0,.727.061h5.544a1.6,1.6,0,0,0,1.03-.348,1.04,1.04,0,0,0,.424-.848A.86.86,0,0,0,922.614,95.822Z" transform="translate(-775.625 -72.039)"/><path class="a" d="M1005.514,92.393a4.4,4.4,0,0,0,2.136-1.257,3.293,3.293,0,0,0,.772-2.257,4.2,4.2,0,0,0-.258-1.409,3.131,3.131,0,0,0-.863-1.242,4.371,4.371,0,0,0-1.606-.894,7.722,7.722,0,0,0-2.469-.333h-3.636a1.648,1.648,0,0,0-.606.106,1.888,1.888,0,0,0-.515.288,1.474,1.474,0,0,0-.348.409,1,1,0,0,0-.121.515V96.862a1.061,1.061,0,0,0,.424.848,1.517,1.517,0,0,0,1.015.364,1.42,1.42,0,0,0,.561-.106,1.32,1.32,0,0,0,.47-.273,1.25,1.25,0,0,0,.318-.379.855.855,0,0,0,.121-.454v-4.2h1.424l3.515,4.817a1.426,1.426,0,0,0,1.227.561,1.623,1.623,0,0,0,.7-.167,1.766,1.766,0,0,0,.561-.424,1.14,1.14,0,0,0,.258-.606,1.009,1.009,0,0,0-.212-.682Zm-.591-2.424a2.926,2.926,0,0,1-1.651.379h-2.348V87.3h2.212a4.175,4.175,0,0,1,1.167.136,2.043,2.043,0,0,1,.727.364,1.206,1.206,0,0,1,.348.5,1.809,1.809,0,0,1,.091.561A1.2,1.2,0,0,1,1004.923,89.969Z" transform="translate(-846.815 -72.124)"/><path class="a" d="M1101.4,95.877a1.616,1.616,0,0,0-1.03-.333h-4.832l5.953-8.529a1.76,1.76,0,0,0,.2-.333,1.011,1.011,0,0,0,.091-.454,1.048,1.048,0,0,0-.424-.863,1.635,1.635,0,0,0-1.091-.364h-7.09a1.53,1.53,0,0,0-1.03.364,1.1,1.1,0,0,0-.424.833,1.013,1.013,0,0,0,.424.833,1.56,1.56,0,0,0,1.03.333h4.726q-.773,1.136-1.5,2.181c-.485.7-.97,1.394-1.454,2.075-.485.7-.97,1.379-1.454,2.075s-.985,1.409-1.5,2.166a2.227,2.227,0,0,0-.182.379.969.969,0,0,0-.106.424,1.1,1.1,0,0,0,.424.879,1.622,1.622,0,0,0,1.076.364h7.165a1.6,1.6,0,0,0,1.03-.348,1.04,1.04,0,0,0,.424-.848A.939.939,0,0,0,1101.4,95.877Z" transform="translate(-926.32 -72.124)"/><path class="a" d="M1190.235,84.248a1.644,1.644,0,0,0-.485-.258,1.714,1.714,0,0,0-.545-.091,2.173,2.173,0,0,0-.7.121,1.127,1.127,0,0,0-.53.424l-2.59,4.545-2.621-4.545a1.088,1.088,0,0,0-.515-.424,1.837,1.837,0,0,0-1.227-.03,1.562,1.562,0,0,0-.47.258,1.313,1.313,0,0,0-.333.379.856.856,0,0,0-.121.454.956.956,0,0,0,.045.288,2.133,2.133,0,0,0,.091.242l3.681,6.3v4.014a1.06,1.06,0,0,0,.424.848,1.728,1.728,0,0,0,2.121,0,1.082,1.082,0,0,0,.424-.848V91.914l3.651-6.3c.031-.091.061-.167.091-.273a.855.855,0,0,0,.046-.273.972.972,0,0,0-.121-.454A1.2,1.2,0,0,0,1190.235,84.248Z" transform="translate(-1001.329 -71.19)"/><path class="a" d="M1274.5,152.909a1.9,1.9,0,0,0-1.227-.409,2.039,2.039,0,0,0-.7.106,1.821,1.821,0,0,0-.561.3,1.221,1.221,0,0,0-.379.454,1.159,1.159,0,0,0,0,1.091,1.517,1.517,0,0,0,.379.454,2.847,2.847,0,0,0,.561.318,2.037,2.037,0,0,0,.7.121,1.861,1.861,0,0,0,1.227-.424,1.263,1.263,0,0,0,.515-1A1.229,1.229,0,0,0,1274.5,152.909Z" transform="translate(-1078.883 -129.398)"/><path class="a" d="M1332.432,86.218a4.7,4.7,0,0,0-1.651-.954,7.476,7.476,0,0,0-2.484-.364h-3.075a1.621,1.621,0,0,0-.621.106,1.89,1.89,0,0,0-.515.288,1.473,1.473,0,0,0-.348.409,1.007,1.007,0,0,0-.136.515V96.762a1.077,1.077,0,0,0,.439.848,1.557,1.557,0,0,0,1.03.364,1.528,1.528,0,0,0,1.03-.364,1.081,1.081,0,0,0,.424-.848V93.414h1.772a7.636,7.636,0,0,0,2.2-.288,4.834,4.834,0,0,0,1.682-.818,3.368,3.368,0,0,0,1.076-1.318,4.108,4.108,0,0,0,.379-1.818,4.371,4.371,0,0,0-.288-1.606A3.43,3.43,0,0,0,1332.432,86.218Zm-2.333,4.408a2.878,2.878,0,0,1-1.8.47h-1.772V87.233h1.772a3.727,3.727,0,0,1,1.2.167,1.874,1.874,0,0,1,.727.454,1.529,1.529,0,0,1,.364.621,2.227,2.227,0,0,1,.106.7A1.679,1.679,0,0,1,1330.1,90.626Z" transform="translate(-1123.09 -72.039)"/><path class="a" d="M1423.738,94.989a1.653,1.653,0,0,0-1-.333h-4.53V85.066a1.006,1.006,0,0,0-.424-.818,1.628,1.628,0,0,0-1.03-.348,1.6,1.6,0,0,0-1.03.348,1.006,1.006,0,0,0-.424.818V95.7a1.088,1.088,0,0,0,.469.894,1.753,1.753,0,0,0,1.091.364h5.893a1.518,1.518,0,0,0,1.015-.333,1,1,0,0,0-.03-1.636Z" transform="translate(-1200.899 -71.19)"/></svg>