<svg xmlns="http://www.w3.org/2000/svg" width="213.353" height="38.645" viewBox="0 0 213.353 38.645"><defs><style>.a{fill:none;}.b{fill:#888784;}</style></defs><path class="a" d="M668.1,80.062h6.146L671.192,70.9Z" transform="translate(-539.778 -57.282)"/><path class="a" d="M1010.63,95.3c-2.478,0-4.13,1.748-4.13,4.437,0,2.651,1.652,4.437,4.091,4.437a4.06,4.06,0,0,0,4.091-4.36C1014.682,97.029,1013.146,95.3,1010.63,95.3Z" transform="translate(-813.181 -76.996)"/><path class="a" d="M470.958,62.1H468.5v6.934h2.055c2.593,0,4.053-1.268,4.053-3.5C474.608,63.425,473.225,62.1,470.958,62.1Z" transform="translate(-378.515 -50.172)"/><path class="a" d="M96.793,23H79.411a.709.709,0,0,0-.711.711v5.916H88.726A2.484,2.484,0,0,1,91.2,32.1v9.719h5.589a.709.709,0,0,0,.711-.711V23.691A.693.693,0,0,0,96.793,23Z" transform="translate(-63.584 -18.582)"/><path class="a" d="M29.2,90.019V80.3H23.611a.709.709,0,0,0-.711.711v17.4a.709.709,0,0,0,.711.711h17.4a.709.709,0,0,0,.711-.711V92.5H31.678A2.484,2.484,0,0,1,29.2,90.019Z" transform="translate(-18.502 -64.877)"/><path class="b" d="M35.86,0H13.2a2.484,2.484,0,0,0-2.478,2.478v8.547H2.478A2.484,2.484,0,0,0,0,13.5V36.167a2.484,2.484,0,0,0,2.478,2.478H25.142a2.484,2.484,0,0,0,2.478-2.478V27.62H35.84a2.484,2.484,0,0,0,2.478-2.478V2.478A2.455,2.455,0,0,0,35.86,0ZM23.221,33.536a.709.709,0,0,1-.711.711H5.109a.709.709,0,0,1-.711-.711v-17.4a.709.709,0,0,1,.711-.711H10.7v9.719a2.484,2.484,0,0,0,2.478,2.478H23.2v5.916Zm10.7-11.025a.709.709,0,0,1-.711.711H27.62V13.5a2.484,2.484,0,0,0-2.478-2.478H15.116V5.109a.709.709,0,0,1,.711-.711h17.4a.709.709,0,0,1,.711.711v17.4Z"/><path class="b" d="M914.678,79.445a4.2,4.2,0,0,1,3.15,1.364l2.8-2.555a8.749,8.749,0,0,0-6.108-2.555,8.183,8.183,0,0,0-.019,16.364,8.17,8.17,0,0,0,5.877-2.286l-2.555-2.747a4.115,4.115,0,0,1-2.977,1.287,4.209,4.209,0,0,1-4.206-4.494A4.109,4.109,0,0,1,914.678,79.445Z" transform="translate(-732.307 -61.16)"/><path class="b" d="M992.855,75.7c-4.956,0-8.355,3.342-8.355,8.2a7.935,7.935,0,0,0,8.3,8.163,8.184,8.184,0,1,0,.058-16.364Zm-.039,12.638c-2.439,0-4.091-1.786-4.091-4.437,0-2.67,1.652-4.437,4.13-4.437,2.516,0,4.072,1.729,4.072,4.494A4.091,4.091,0,0,1,992.817,88.338Z" transform="translate(-795.406 -61.16)"/><path class="b" d="M1087.519,93.266h1.709a2.492,2.492,0,0,0,2.5-2.5V77.9H1087.5Z" transform="translate(-878.623 -62.938)"/><path class="b" d="M1088.762,47.425a2.328,2.328,0,0,0,2.324-2.362,2.292,2.292,0,0,0-2.209-2.362h-.154a2.265,2.265,0,0,0-2.324,2.382A2.344,2.344,0,0,0,1088.762,47.425Z" transform="translate(-877.734 -34.499)"/><path class="b" d="M268.828,52.2c-.96-.941-2.19-1.556-4.61-2.459a15.639,15.639,0,0,1-2.593-1.095,2.31,2.31,0,0,1-1.364-2.094c0-1.4,1.095-2.324,2.727-2.324,1.786,0,2.727.9,2.881,2.747h4.59c-.365-4.245-3.15-6.78-7.472-6.78-4.341,0-7.3,2.689-7.3,6.7,0,3.38,1.729,5.205,6.569,6.934a8.855,8.855,0,0,1,2.689,1.229,2.266,2.266,0,0,1,.9,1.767c0,1.325-1.268,2.362-2.92,2.362a2.748,2.748,0,0,1-3.015-2.593V56.3H255.5c-.038,4.245,2.824,6.915,7.472,6.915,4.59,0,7.644-2.689,7.644-6.742A5.782,5.782,0,0,0,268.828,52.2Z" transform="translate(-206.424 -32.479)"/><path class="b" d="M347.6,46.226h5.282V64.665h4.552V46.226h5.244V42.5H347.6Z" transform="translate(-280.836 -34.337)"/><path class="b" d="M460.07,49.472c0-4.552-2.958-6.972-8.432-6.972H444.8V64.646h4.552l-.019-8.8,6.089,8.8h5.512l-6.108-8.49A6.385,6.385,0,0,0,460.07,49.472ZM451.407,53.2h-2.055V46.265h2.458c2.266,0,3.649,1.325,3.649,3.457C455.46,51.931,454,53.2,451.407,53.2Z" transform="translate(-359.367 -34.337)"/><path class="b" d="M549.7,64.665h12.312V60.939h-7.76V55.388h7.76V51.681h-7.76V46.226h7.76V42.5H549.7Z" transform="translate(-444.119 -34.337)"/><path class="b" d="M637.745,42.6,630.1,64.746h4.821l1.325-3.822h8.509l1.268,3.822H651L643.411,42.6ZM637.4,57.2l3.092-9.162,3.054,9.162Z" transform="translate(-509.076 -34.418)"/><path class="b" d="M768.855,55.388,762.247,42.5H757.1V64.665h4.552V50.836l5.474,10.007h3.457L776.1,50.836V64.665h4.533V42.5h-5.148Z" transform="translate(-611.683 -34.337)"/></svg>