<svg xmlns="http://www.w3.org/2000/svg" width="71.028" height="71.038" viewBox="0 0 71.028 71.038"><defs><style>.a{fill:#2d284d;stroke:#fff;}</style></defs><g transform="translate(-51.527 0.528)"><g transform="translate(95.499 59.601)"><g transform="translate(0)"><path class="a" d="M340.328,392.08a1.525,1.525,0,0,0-2.173-.02l-.015.014a1.525,1.525,0,0,0-.046,2.173,1.524,1.524,0,0,0,2.173.005A1.524,1.524,0,0,0,340.328,392.08Z" transform="translate(-337.662 -391.615)"/></g></g><g transform="translate(52.027 -0.001)"><path class="a" d="M121.911,12.62a1.522,1.522,0,0,0-1.406-.939h-8l.86-.86a1.522,1.522,0,1,0-2.152-2.152l-.871.871V1.521a1.522,1.522,0,0,0-2.6-1.076L94.334,13.86a1.522,1.522,0,0,0-.446,1.076v5.279a26.786,26.786,0,0,0-14.774-4.379A27.087,27.087,0,1,0,93.139,66.1a1.522,1.522,0,0,0-1.578-2.6,24.046,24.046,0,1,1,2.326-39.544V26L91.115,28.77a18.588,18.588,0,1,0,2.152,2.152l2.784-2.784h2.024a24.056,24.056,0,0,1,1.487,27.439,1.522,1.522,0,1,0,2.587,1.6,27.1,27.1,0,0,0-.338-29.043h5.28a1.522,1.522,0,0,0,1.076-.446l13.415-13.415A1.52,1.52,0,0,0,121.911,12.62Zm-27.275,30.3a15.539,15.539,0,1,1-5.68-11.994L85.49,34.4a10.662,10.662,0,1,0,2.152,2.152l3.466-3.466A15.45,15.45,0,0,1,94.636,42.923ZM78.038,44a1.522,1.522,0,0,0,2.152,0l5.269-5.269a7.618,7.618,0,1,1-2.152-2.152l-5.269,5.269A1.522,1.522,0,0,0,78.038,44ZM96.932,22.954V15.567L107.3,5.2v7.387ZM106.46,25.1H99.095l10.371-10.371h7.365Z" transform="translate(-52.027 0.001)"/></g></g></svg>